<?xml version="1.0" encoding="utf-8"?>
<svg viewBox="-738.149 618.442 14104 1860.692" xmlns="http://www.w3.org/2000/svg">
  <g id="Gbmf" transform="matrix(1, 0, 0, 1, -8536.149414, -8950.865234)">
    <path class="fil0" d="M10756 9887l306 0 2885 0c35,0 69,7 100,20 32,14 61,33 84,57 24,23 44,52 57,84 13,31 20,65 20,100 0,35 -7,69 -20,100l0 0c-14,32 -33,60 -57,84 -23,24 -52,43 -84,57 -31,13 -65,20 -100,20l-2335 0 0 250 2335 0c35,0 69,7 100,20 32,13 61,33 84,56 24,24 44,53 57,85 13,31 20,65 20,100 0,35 -7,69 -20,99l0 0c-14,32 -33,61 -57,85 -23,23 -52,43 -84,56 -31,13 -65,20 -100,20l-2335 0 0 250 2335 0c70,0 135,-13 195,-38 62,-26 119,-64 166,-112 48,-47 86,-103 112,-166 24,-59 38,-125 38,-194 0,-58 -9,-113 -27,-164 -18,-53 -44,-103 -78,-147l-58 -75 58 -76c34,-44 60,-93 78,-147 18,-51 27,-106 27,-163 0,-69 -14,-135 -38,-195 -26,-62 -64,-119 -112,-166 -47,-48 -104,-86 -166,-112 -60,-24 -125,-38 -195,-38l-2885 0 -306 0 -2061 0c-121,0 -237,24 -342,68 -109,45 -208,112 -291,195 -83,83 -150,182 -196,292 -43,105 -68,220 -68,342 0,121 25,237 68,342 46,109 113,208 196,291 83,83 182,150 291,196 105,43 221,67 342,67l1992 0 375 0 0 -1021 -2429 0 0 250 2179 0 0 521 -2117 0c-87,0 -170,-17 -246,-49 -80,-33 -151,-81 -211,-141 -59,-59 -107,-130 -140,-210 -32,-76 -50,-160 -50,-246 0,-87 18,-170 50,-247 33,-79 81,-151 140,-210 60,-59 131,-107 211,-141 76,-31 159,-49 246,-49l2061 0zm5274 1543l250 0 0 -907c526,317 1066,641 1500,903l0 -296c-460,-278 -987,-596 -1500,-906l0 -313c0,-74 57,-121 140,-73 768,464 1867,1124 2635,1588l0 1 250 0 0 -1256c0,-32 1,-60 11,-95l0 -1c11,-39 30,-75 66,-111l0 0c23,-24 52,-43 84,-57 31,-13 65,-20 100,-20l2336 0 0 -250 -2336 0c-69,0 -135,14 -195,38 -62,26 -119,64 -166,112 -47,47 -86,104 -111,166 -49,116 -40,227 -39,348l0 829c-751,-454 -1682,-1016 -2433,-1470 -283,-178 -592,-95 -592,258l0 155c-237,-143 -468,-282 -684,-413 -282,-178 -591,-95 -591,258l0 1512 250 0 0 -1519c0,-74 56,-121 139,-73 265,160 570,344 886,534l0 1058zm5872 -1021l-2075 0 0 250 2075 0 0 -250z" style="fill-rule: nonzero;"/>
  </g>
</svg>
