<?xml version="1.0" encoding="utf-8"?>
<svg viewBox="11410.31 8544.29 4318.684 1662.288" xmlns="http://www.w3.org/2000/svg">
  <defs>
    <style type="text/css">
   
    .fil1 {fill:#FFED00}
    .fil0 {fill:#3B3B3B;fill-rule:nonzero}
   
  </style>
  </defs>
  <g id="Слой_x0020_1" style="" transform="matrix(0.226655, 0, 0, 0.226655, 10203.825195, 6995.556641)">
    <g id="_222295360192">
      <polygon class="fil0" points="24377,11715 24374,11715 24377,11721 "/>
      <polygon class="fil0" points="21905,11711 21905,9417 21495,9417 21495,11711 "/>
      <path class="fil0" d="M19975 11298c-144,-19 -259,-134 -278,-278l0 -1603 -410 0 0 1563c0,115 26,223 75,322 69,144 187,262 331,334 99,49 207,75 321,75l1164 0 0 -409 -1203 -4z"/>
      <path class="fil0" d="M16390 9829l-1409 0c-73,0 -139,30 -188,79 -48,48 -78,115 -78,188 0,73 29,140 77,188l1 0c49,48 115,79 188,79l79 0 426 0 304 0c186,0 356,76 479,199l1 0c123,123 199,283 199,470 0,186 -76,356 -199,479l-1 1c-123,123 -293,199 -479,199l-1420 0 0 -412 1420 0c74,0 140,-30 188,-78l1 0c48,-48 78,-115 78,-189 0,-73 -30,-130 -79,-179l0 0c-48,-48 -114,-78 -188,-78l-304 0 -426 0 -79 0c-187,0 -356,-76 -479,-199l0 -1c-123,-123 -200,-293 -200,-479 0,-187 77,-357 200,-480 123,-123 292,-199 479,-199l1409 0 0 412z"/>
      <polygon class="fil0" points="24338,9417 23873,9417 23244,10234 22615,9417 22153,9417 22153,9490 22985,10569 22153,11650 22153,11715 22621,11715 23247,10904 23873,11715 24338,11715 24338,11646 23506,10569 24338,9490 "/>
      <polygon class="fil1" points="17201,9279 17839,9916 18476,9279 "/>
      <path class="fil0" d="M18280 9958c191,133 315,355 315,606 0,407 -326,738 -732,738 -171,0 122,0 -49,0 -406,0 -732,-331 -732,-738 0,-251 124,-473 315,-606l-294 -294c-265,210 -436,536 -436,900 0,633 514,1147 1147,1147 171,0 -122,0 49,0 633,0 1147,-514 1147,-1147 0,-364 -171,-690 -436,-900l-294 294z"/>
      <path class="fil1" d="M8355 7273l268 155 268 155 0 310 0 309 -268 155 -268 155 -268 -155 -268 -155 0 -309 0 -310 268 -155 268 -155zm-1279 1313l261 -70 262 -70 191 192 191 191 -70 262 -70 261 -261 70 -261 70 -192 -191 -191 -192 70 -261 70 -262zm3062 3062l261 -70 261 -70 192 191 191 192 -70 261 -70 262 -261 70 -262 70 -191 -192 -192 -191 71 -262 70 -261zm765 -3062l70 262 70 261 -191 192 -192 191 -261 -70 -261 -70 -70 -261 -71 -262 192 -191 191 -192 262 70 261 70zm-1279 -1313l268 155 268 155 0 310 0 309 -268 155 -268 155 -268 -155 -268 -155 0 -309 0 -310 268 -155 268 -155zm-635 -440l131 76 131 75 0 151 0 151 -131 75 -131 75 -130 -75 -131 -75 0 -151 0 -151 131 -75 130 -76zm0 1523l235 136 234 135 0 271 0 270 -234 136 -235 135 -234 -135 -234 -136 0 -270 0 -271 234 -135 234 -136zm-634 5371l268 -155 268 -155 0 -310 0 -309 -268 -155 -268 -155 -268 155 -268 155 0 309 0 310 268 155 268 155zm1269 0l268 -155 268 -155 0 -310 0 -309 -268 -155 -268 -155 -268 155 -268 155 0 309 0 310 268 155 268 155zm-635 440l131 -76 131 -75 0 -151 0 -151 -131 -75 -131 -75 -130 75 -131 75 0 151 0 151 131 75 130 76zm0 -1523l235 -136 234 -135 0 -271 0 -270 -234 -136 -235 -135 -234 135 -234 136 0 270 0 271 234 135 234 136zm-3226 -1510l155 -268 154 -268 310 0 310 0 154 268 155 268 -155 269 -154 268 -310 0 -310 0 -154 -268 -155 -269zm0 -1268l155 -269 154 -268 310 0 310 0 154 268 155 269 -155 268 -154 268 -310 0 -310 0 -154 -268 -155 -268zm-440 634l75 -131 76 -130 150 0 151 0 75 130 76 131 -76 131 -75 130 -151 0 -150 0 -76 -130 -75 -131zm1523 0l135 -234 136 -235 270 0 271 0 135 235 135 234 -135 234 -135 235 -271 0 -270 0 -136 -235 -135 -234zm5370 634l-155 -268 -155 -268 -309 0 -310 0 -155 268 -154 268 154 269 155 268 310 0 309 0 155 -268 155 -269zm0 -1268l-155 -269 -155 -268 -309 0 -310 0 -155 268 -154 269 154 268 155 268 310 0 309 0 155 -268 155 -268zm440 634l-75 -131 -76 -130 -150 0 -151 0 -76 130 -75 131 75 131 76 130 151 0 150 0 76 -130 75 -131zm-1523 0l-135 -234 -136 -235 -270 0 -271 0 -135 235 -135 234 135 234 135 235 271 0 270 0 136 -235 135 -234zm-3292 1148l70 261 70 262 -191 191 -191 192 -262 -70 -261 -70 -70 -262 -70 -261 191 -192 192 -191 261 70 261 70z"/>
    </g>
  </g>
</svg>