<svg width="50" height="50" viewBox="0 0 50 50" fill="none" xmlns="http://www.w3.org/2000/svg">
<path fill-rule="evenodd" clip-rule="evenodd" d="M20.6708 2.99973L22.498 4.05645L24.3251 5.11317V7.22662V9.33324L22.498 10.39L20.6708 11.4467L18.8437 10.39L17.0166 9.33324V7.22662V5.11317L18.8437 4.05645L20.6708 2.99973ZM11.9512 11.9512L13.7306 11.474L15.5168 10.9967L16.8189 12.3057L18.1211 13.6079L17.6438 15.3941L17.1666 17.1734L15.3872 17.6507L13.6079 18.1279L12.2989 16.8257L10.9967 15.5168L11.474 13.7374L11.9512 11.9512ZM32.8266 32.8266L34.6059 32.3493L36.3853 31.8721L37.6943 33.1743L38.9965 34.4832L38.5192 36.2626L38.042 38.0488L36.2626 38.526L34.4764 39.0033L33.1743 37.6943L31.8653 36.3921L32.3493 34.6059L32.8266 32.8266ZM38.042 11.9512L38.5192 13.7374L38.9965 15.5168L37.6943 16.8257L36.3853 18.1279L34.6059 17.6507L32.8266 17.1734L32.3493 15.3941L31.8653 13.6079L33.1743 12.3057L34.4764 10.9967L36.2626 11.474L38.042 11.9512ZM29.3223 2.99973L31.1494 4.05645L32.9765 5.11317V7.22662V9.33324L31.1494 10.39L29.3223 11.4467L27.4952 10.39L25.6681 9.33324V7.22662V5.11317L27.4952 4.05645L29.3223 2.99973ZM24.9932 0L25.8863 0.518135L26.7794 1.02945V2.0589V3.08836L25.8863 3.59967L24.9932 4.11099L24.1069 3.59967L23.2138 3.08836V2.0589V1.02945L24.1069 0.518135L24.9932 0ZM24.9932 10.3831L26.5953 11.3103L28.1906 12.2307V14.0783V15.919L26.5953 16.8462L24.9932 17.7666L23.3979 16.8462L21.8026 15.919V14.0783V12.2307L23.3979 11.3103L24.9932 10.3831ZM20.6708 47.0003L22.498 45.9436L24.3251 44.8868V42.7734V40.6668L22.498 39.61L20.6708 38.5533L18.8437 39.61L17.0166 40.6668V42.7734V44.8868L18.8437 45.9436L20.6708 47.0003ZM29.3223 47.0003L31.1494 45.9436L32.9765 44.8868V42.7734V40.6668L31.1494 39.61L29.3223 38.5533L27.4952 39.61L25.6681 40.6668V42.7734V44.8868L27.4952 45.9436L29.3223 47.0003ZM24.9932 50L25.8863 49.4819L26.7794 48.9705V47.9411V46.9116L25.8863 46.4003L24.9932 45.889L24.1069 46.4003L23.2138 46.9116V47.9411V48.9705L24.1069 49.4819L24.9932 50ZM24.9932 39.6169L26.5953 38.6897L28.1906 37.7693V35.9217V34.081L26.5953 33.1538L24.9932 32.2334L23.3979 33.1538L21.8026 34.081V35.9217V37.7693L23.3979 38.6897L24.9932 39.6169ZM2.99973 29.3223L4.05645 27.4952L5.10635 25.6681H7.2198H9.33324L10.3831 27.4952L11.4399 29.3223L10.3831 31.1563L9.33324 32.9834H7.2198H5.10635L4.05645 31.1563L2.99973 29.3223ZM2.99973 20.6777L4.05645 18.8437L5.10635 17.0166H7.2198H9.33324L10.3831 18.8437L11.4399 20.6777L10.3831 22.5048L9.33324 24.3319H7.2198H5.10635L4.05645 22.5048L2.99973 20.6777ZM0 25L0.511317 24.1069L1.02945 23.2206H2.05209H3.08154L3.59285 24.1069L4.11099 25L3.59285 25.8931L3.08154 26.7794H2.05209H1.02945L0.511317 25.8931L0 25ZM10.3831 25L11.3035 23.4047L12.2307 21.8026H14.0714H15.919L16.8394 23.4047L17.7597 25L16.8394 26.5953L15.919 28.1974H14.0714H12.2307L11.3035 26.5953L10.3831 25ZM46.9935 29.3223L45.9367 27.4952L44.88 25.6681H42.7734H40.6599L39.6032 27.4952L38.5533 29.3223L39.6032 31.1563L40.6599 32.9834H42.7734H44.88L45.9367 31.1563L46.9935 29.3223ZM46.9935 20.6777L45.9367 18.8437L44.88 17.0166H42.7734H40.6599L39.6032 18.8437L38.5533 20.6777L39.6032 22.5048L40.6599 24.3319H42.7734H44.88L45.9367 22.5048L46.9935 20.6777ZM49.9932 25L49.4819 24.1069L48.9637 23.2206H47.9411H46.9116L46.3935 24.1069L45.8822 25L46.3935 25.8931L46.9116 26.7794H47.9411H48.9637L49.4819 25.8931L49.9932 25ZM39.61 25L38.6897 23.4047L37.7625 21.8026H35.9217H34.0742L33.1538 23.4047L32.2334 25L33.1538 26.5953L34.0742 28.1974H35.9217H37.7625L38.6897 26.5953L39.61 25ZM17.1666 32.8266L17.6438 34.6059L18.1211 36.3921L16.8189 37.6943L15.5168 39.0033L13.7306 38.526L11.9512 38.0488L11.474 36.2626L10.9967 34.4832L12.2989 33.1743L13.6079 31.8721L15.3872 32.3493L17.1666 32.8266Z" fill="white"/>
</svg>
