<svg width="140" height="55" viewBox="0 0 140 55" fill="none" xmlns="http://www.w3.org/2000/svg">
<path d="M140 36.7158H139.978L140 36.7599V36.7158Z" fill="#1F1F1F"/>
<path d="M121.837 36.6863V19.8311H118.824V36.6863H121.837Z" fill="#1F1F1F"/>
<path d="M107.656 33.6518C106.598 33.5122 105.753 32.6672 105.614 31.6092V19.8311H102.601V31.3153C102.601 32.1602 102.792 32.9538 103.152 33.6812C103.659 34.7392 104.526 35.6062 105.584 36.1352C106.312 36.4953 107.105 36.6863 107.943 36.6863H116.495V33.6812L107.656 33.6518Z" fill="#1F1F1F"/>
<path d="M81.3153 22.8582H70.9626C70.4262 22.8582 69.9413 23.0787 69.5813 23.4387C69.2286 23.7914 69.0082 24.2837 69.0082 24.82C69.0082 25.3564 69.2212 25.8487 69.5739 26.2014H69.5813C69.9413 26.5541 70.4262 26.7818 70.9626 26.7818H71.5431H74.6731H76.9068C78.2734 26.7818 79.5225 27.3402 80.4262 28.244H80.4336C81.3373 29.1477 81.8958 30.3233 81.8958 31.6973C81.8958 33.064 81.3373 34.3131 80.4336 35.2168L80.4262 35.2241C79.5225 36.1279 78.2734 36.6863 76.9068 36.6863H66.4733V33.6591H76.9068C77.4505 33.6591 77.9354 33.4387 78.2881 33.086H78.2955C78.6481 32.7333 78.8686 32.241 78.8686 31.6973C78.8686 31.161 78.6481 30.7422 78.2881 30.3821C77.9354 30.0294 77.4505 29.809 76.9068 29.809H74.6731H71.5431H70.9626C69.5886 29.809 68.3469 29.2506 67.4431 28.3469V28.3395C66.5394 27.4358 65.9736 26.1867 65.9736 24.82C65.9736 23.446 66.5394 22.197 67.4431 21.2932C68.3469 20.3895 69.5886 19.8311 70.9626 19.8311H81.3153V22.8582Z" fill="#1F1F1F"/>
<path d="M139.714 19.8311H136.297L131.675 25.834L127.054 19.8311H123.659V20.3674L129.772 28.2954L123.659 36.2381V36.7157H127.098L131.697 30.7568L136.297 36.7157H139.714V36.2087L133.6 28.2954L139.714 20.3674V19.8311Z" fill="#1F1F1F"/>
<path fill-rule="evenodd" clip-rule="evenodd" d="M87.2739 18.8168L91.9617 23.4972L96.642 18.8168H87.2739Z" fill="#FFE454"/>
<path d="M95.2022 23.8064C96.6055 24.7836 97.5166 26.4148 97.5166 28.259C97.5166 31.2495 95.1213 33.6815 92.1382 33.6815C90.8818 33.6815 93.0346 33.6815 91.7782 33.6815C88.7951 33.6815 86.3998 31.2495 86.3998 28.259C86.3998 26.4148 87.3109 24.7836 88.7143 23.8064L86.5541 21.6462C84.607 23.1892 83.3506 25.5845 83.3506 28.259C83.3506 32.91 87.1272 36.6867 91.7782 36.6867C93.0346 36.6867 90.8818 36.6867 92.1382 36.6867C96.7892 36.6867 100.566 32.91 100.566 28.259C100.566 25.5845 99.3094 23.1892 97.3623 21.6462L95.2022 23.8064Z" fill="#1F1F1F"/>
<path fill-rule="evenodd" clip-rule="evenodd" d="M22.2777 4.07789L24.2469 5.21676L26.216 6.35563V8.63336V10.9038L24.2469 12.0426L22.2777 13.1815L20.3086 12.0426L18.3395 10.9038V8.63336V6.35563L20.3086 5.21676L22.2777 4.07789ZM12.8802 13.7252L14.7979 13.2109L16.723 12.6966L18.1264 14.1073L19.5298 15.5107L19.0154 17.4357L18.5011 19.3534L16.5834 19.8678L14.6657 20.3821L13.255 18.9787L11.8516 17.568L12.3659 15.6503L12.8802 13.7252ZM35.3784 36.2234L37.2961 35.709L39.2138 35.1947L40.6245 36.5981L42.0279 38.0088L41.5136 39.9265L40.9993 41.8516L39.0816 42.3659L37.1565 42.8802L35.7531 41.4695L34.3424 40.0661L34.8641 38.1411L35.3784 36.2234ZM40.9993 13.7252L41.5136 15.6503L42.0279 17.568L40.6245 18.9787L39.2138 20.3821L37.2961 19.8678L35.3784 19.3534L34.8641 17.4357L34.3424 15.5107L35.7531 14.1073L37.1565 12.6966L39.0816 13.2109L40.9993 13.7252ZM31.6018 4.07789L33.5709 5.21676L35.5401 6.35563V8.63336V10.9038L33.5709 12.0426L31.6018 13.1815L29.6326 12.0426L27.6635 10.9038V8.63336V6.35563L29.6326 5.21676L31.6018 4.07789ZM26.9361 0.844971L27.8986 1.40338L28.8611 1.95445V3.06393V4.17341L27.8986 4.72447L26.9361 5.27554L25.9809 4.72447L25.0184 4.17341V3.06393V1.95445L25.9809 1.40338L26.9361 0.844971ZM26.9361 12.0353L28.6628 13.0345L30.3821 14.0265V16.0176V18.0015L28.6628 19.0007L26.9361 19.9927L25.2168 19.0007L23.4974 18.0015V16.0176V14.0265L25.2168 13.0345L26.9361 12.0353ZM22.2777 51.4989L24.2469 50.36L26.216 49.2212V46.9434V44.673L24.2469 43.5342L22.2777 42.3953L20.3086 43.5342L18.3395 44.673V46.9434V49.2212L20.3086 50.36L22.2777 51.4989ZM31.6018 51.4989L33.5709 50.36L35.5401 49.2212V46.9434V44.673L33.5709 43.5342L31.6018 42.3953L29.6326 43.5342L27.6635 44.673V46.9434V49.2212L29.6326 50.36L31.6018 51.4989ZM26.9361 54.7318L27.8986 54.1734L28.8611 53.6223V52.5129V51.4034L27.8986 50.8523L26.9361 50.3013L25.9809 50.8523L25.0184 51.4034V52.5129V53.6223L25.9809 54.1734L26.9361 54.7318ZM26.9361 43.5415L28.6628 42.5423L30.3821 41.5503V39.5592V37.5753L28.6628 36.5761L26.9361 35.5841L25.2168 36.5761L23.4974 37.5753V39.5592V41.5503L25.2168 42.5423L26.9361 43.5415ZM3.23292 32.4467L4.37179 30.4776L5.50331 28.5085H7.78104H10.0588L11.1903 30.4776L12.3292 32.4467L11.1903 34.4232L10.0588 36.3924H7.78104H5.50331L4.37179 34.4232L3.23292 32.4467ZM3.23292 23.1301L4.37179 21.1536L5.50331 19.1844H7.78104H10.0588L11.1903 21.1536L12.3292 23.1301L11.1903 25.0992L10.0588 27.0683H7.78104H5.50331L4.37179 25.0992L3.23292 23.1301ZM0 27.7884L0.551065 26.8259L1.10948 25.8707H2.21161H3.32109L3.87215 26.8259L4.43057 27.7884L3.87215 28.7509L3.32109 29.7061H2.21161H1.10948L0.551065 28.7509L0 27.7884ZM11.1903 27.7884L12.1822 26.0691L13.1815 24.3424H15.1653H17.1565L18.1484 26.0691L19.1403 27.7884L18.1484 29.5077L17.1565 31.2344H15.1653H13.1815L12.1822 29.5077L11.1903 27.7884ZM50.6466 32.4467L49.5077 30.4776L48.3689 28.5085H46.0985H43.8207L42.6819 30.4776L41.5503 32.4467L42.6819 34.4232L43.8207 36.3924H46.0985H48.3689L49.5077 34.4232L50.6466 32.4467ZM50.6466 23.1301L49.5077 21.1536L48.3689 19.1844H46.0985H43.8207L42.6819 21.1536L41.5503 23.1301L42.6819 25.0992L43.8207 27.0683H46.0985H48.3689L49.5077 25.0992L50.6466 23.1301ZM53.8795 27.7884L53.3284 26.8259L52.77 25.8707H51.6679H50.5584L50 26.8259L49.4489 27.7884L50 28.7509L50.5584 29.7061H51.6679H52.77L53.3284 28.7509L53.8795 27.7884ZM42.6892 27.7884L41.6973 26.0691L40.698 24.3424H38.7142H36.723L35.7311 26.0691L34.7392 27.7884L35.7311 29.5077L36.723 31.2344H38.7142H40.698L41.6973 29.5077L42.6892 27.7884ZM18.5011 36.2234L19.0154 38.1411L19.5298 40.0661L18.1264 41.4695L16.723 42.8802L14.7979 42.3659L12.8802 41.8516L12.3659 39.9265L11.8516 38.0088L13.255 36.5981L14.6657 35.1947L16.5834 35.709L18.5011 36.2234Z" fill="#FFE454"/>
</svg>
