<svg width="1917" height="548" viewBox="0 0 1917 548" fill="none" xmlns="http://www.w3.org/2000/svg">
<mask id="mask0" mask-type="alpha" maskUnits="userSpaceOnUse" x="0" y="0" width="1920" height="548">
<rect width="1920" height="548" fill="#FFE454"/>
</mask>
<g mask="url(#mask0)">
<path opacity="0.02" fill-rule="evenodd" clip-rule="evenodd" d="M352.722 -280.744L390.677 -258.858L428.632 -236.971V-193.197V-149.424L390.677 -128.023L352.722 -106.137L314.767 -128.023L277.299 -149.424V-193.197V-236.971L314.767 -258.858L352.722 -280.744ZM172.193 -95.4366L209.175 -105.164L246.157 -115.378L272.92 -88.141L300.169 -61.3905L289.951 -24.4262L280.219 12.5381L243.237 22.2655L206.255 32.4793L179.492 5.24246L152.243 -21.508L162.461 -58.4723L172.193 -95.4366ZM604.295 336.462L641.276 326.734L678.258 316.521L705.021 343.758L732.271 370.508L722.052 407.472L712.32 444.437L675.339 454.164L638.843 464.378L611.594 437.141L584.831 410.391L594.563 373.426L604.295 336.462ZM712.32 -95.4366L722.052 -58.4723L732.271 -21.508L705.021 5.24246L678.258 32.4793L641.276 22.2655L604.295 12.5381L594.563 -24.4262L584.831 -61.3905L611.594 -88.141L638.843 -115.378L675.339 -105.164L712.32 -95.4366ZM531.791 -280.744L569.746 -258.858L607.701 -236.971V-193.197V-149.424L569.746 -128.023L531.791 -106.137L493.836 -128.023L456.368 -149.424V-193.197V-236.971L493.836 -258.858L531.791 -280.744ZM442.257 -343L460.748 -332.3L479.238 -321.6V-300.199V-278.799L460.748 -268.099L442.257 -257.885L423.766 -268.099L405.275 -278.799V-300.199V-321.6L423.766 -332.3L442.257 -343ZM442.257 -128.023L475.346 -109.055L508.434 -89.6001V-51.6631V-13.2397L475.346 5.72885L442.257 24.6974L409.168 5.72885L376.079 -13.2397V-51.6631V-89.6001L409.168 -109.055L442.257 -128.023ZM352.722 629.744L390.677 607.858L428.632 585.971V542.197V498.91L390.677 477.023L352.722 455.137L314.767 477.023L277.299 498.91V542.197V585.971L314.767 607.858L352.722 629.744ZM531.791 629.744L569.746 607.858L607.701 585.971V542.197V498.91L569.746 477.023L531.791 455.137L493.836 477.023L456.368 498.91V542.197V585.971L493.836 607.858L531.791 629.744ZM442.257 692L460.748 681.3L479.238 670.6V649.199V627.799L460.748 617.585L442.257 606.885L423.766 617.585L405.275 627.799V649.199V670.6L423.766 681.3L442.257 692ZM442.257 477.023L475.346 458.055L508.434 438.6V400.663V362.24L475.346 343.271L442.257 324.303L409.168 343.271L376.079 362.24V400.663V438.6L409.168 458.055L442.257 477.023ZM-13.2017 263.992L8.69534 226.055L30.5924 188.118H74.3865H118.181L140.078 226.055L161.488 263.992L140.078 301.93L118.181 339.867H74.3865H30.5924L8.69534 301.93L-13.2017 263.992ZM-13.2017 85.0075L8.69534 47.0705L30.5924 9.13345H74.3865H118.181L140.078 47.0705L161.488 85.0075L140.078 122.945L118.181 160.882H74.3865H30.5924L8.69534 122.945L-13.2017 85.0075ZM-75 174.5L-64.7814 156.018L-54.0762 137.536H-32.6657H-11.2553L-0.550072 156.018L9.66855 174.5L-0.550072 192.982L-11.2553 211.464H-32.6657H-54.0762L-64.7814 192.982L-75 174.5ZM139.591 174.5L159.055 141.427L178.032 108.353H215.987H254.429L273.406 141.427L292.384 174.5L273.406 207.573L254.429 240.647H215.987H178.032L159.055 207.573L139.591 174.5ZM897.715 263.992L875.818 226.055L853.921 188.118H810.127H766.819L744.922 226.055L723.025 263.992L744.922 301.93L766.819 339.867H810.127H853.921L875.818 301.93L897.715 263.992ZM897.715 85.0075L875.818 47.0705L853.921 9.13345H810.127H766.819L744.922 47.0705L723.025 85.0075L744.922 122.945L766.819 160.882H810.127H853.921L875.818 122.945L897.715 85.0075ZM960 174.5L949.295 156.018L938.59 137.536H917.179H895.769L885.55 156.018L874.845 174.5L885.55 192.982L895.769 211.464H917.179H938.59L949.295 192.982L960 174.5ZM744.922 174.5L725.945 141.427L706.481 108.353H668.526H630.085L611.107 141.427L592.13 174.5L611.107 207.573L630.085 240.647H668.526H706.481L725.945 207.573L744.922 174.5ZM280.219 336.462L289.951 373.426L300.169 410.391L272.92 437.141L246.157 464.378L209.175 454.164L172.193 444.437L162.461 407.472L152.243 370.508L179.492 343.758L206.255 316.521L243.237 326.734L280.219 336.462Z" fill="white"/>
<path opacity="0.05" fill-rule="evenodd" clip-rule="evenodd" d="M409.451 6.9173L423.423 14.9742L437.395 23.031V39.1447V55.2585L423.423 63.1363L409.451 71.1931L395.48 63.1363L381.687 55.2585V39.1447V23.031L395.48 14.9742L409.451 6.9173ZM342.996 75.1321L356.609 71.5512L370.223 67.7914L380.075 77.8177L390.106 87.6649L386.344 101.272L382.762 114.879L369.148 118.46L355.535 122.22L345.683 112.194L335.652 102.346L339.413 88.7392L342.996 75.1321ZM502.059 234.121L515.673 230.54L529.286 226.78L539.138 236.806L549.169 246.654L545.408 260.261L541.825 273.868L528.212 277.449L514.777 281.209L504.746 271.182L494.894 261.335L498.477 247.728L502.059 234.121ZM541.825 75.1321L545.408 88.7392L549.169 102.346L539.138 112.194L529.286 122.22L515.673 118.46L502.059 114.879L498.477 101.272L494.894 87.6649L504.746 77.8177L514.777 67.7914L528.212 71.5512L541.825 75.1321ZM475.37 6.9173L489.341 14.9742L503.313 23.031V39.1447V55.2585L489.341 63.1363L475.37 71.1931L461.398 63.1363L447.605 55.2585V39.1447V23.031L461.398 14.9742L475.37 6.9173ZM442.41 -16L449.217 -12.0611L456.024 -8.12218V-0.24436V7.63346L449.217 11.5724L442.41 15.3322L435.604 11.5724L428.797 7.63346V-0.24436V-8.12218L435.604 -12.0611L442.41 -16ZM442.41 63.1363L454.591 70.1189L466.772 77.2805V91.2458V105.39L454.591 112.373L442.41 119.355L430.23 112.373L418.049 105.39V91.2458V77.2805L430.23 70.1189L442.41 63.1363ZM409.451 342.083L423.423 334.026L437.395 325.969V309.855V293.921L423.423 285.864L409.451 277.807L395.48 285.864L381.687 293.921V309.855V325.969L395.48 334.026L409.451 342.083ZM475.37 342.083L489.341 334.026L503.313 325.969V309.855V293.921L489.341 285.864L475.37 277.807L461.398 285.864L447.605 293.921V309.855V325.969L461.398 334.026L475.37 342.083ZM442.41 365L449.217 361.061L456.024 357.122V349.244V341.367L449.217 337.607L442.41 333.668L435.604 337.607L428.797 341.367V349.244V357.122L435.604 361.061L442.41 365ZM442.41 285.864L454.591 278.881L466.772 271.719V257.754V243.61L454.591 236.627L442.41 229.645L430.23 236.627L418.049 243.61V257.754V271.719L430.23 278.881L442.41 285.864ZM274.749 207.444L282.81 193.478L290.87 179.513H306.992H323.113L331.173 193.478L339.055 207.444L331.173 221.409L323.113 235.374H306.992H290.87L282.81 221.409L274.749 207.444ZM274.749 141.556L282.81 127.591L290.87 113.626H306.992H323.113L331.173 127.591L339.055 141.556L331.173 155.522L323.113 169.487H306.992H290.87L282.81 155.522L274.749 141.556ZM252 174.5L255.762 167.696L259.702 160.893H267.584H275.465L279.406 167.696L283.168 174.5L279.406 181.304L275.465 188.107H267.584H259.702L255.762 181.304L252 174.5ZM330.994 174.5L338.159 162.325L345.145 150.15H359.117H373.268L380.254 162.325L387.24 174.5L380.254 186.675L373.268 198.85H359.117H345.145L338.159 186.675L330.994 174.5ZM610.072 207.444L602.011 193.478L593.951 179.513H577.829H561.887L553.827 193.478L545.766 207.444L553.827 221.409L561.887 235.374H577.829H593.951L602.011 221.409L610.072 207.444ZM610.072 141.556L602.011 127.591L593.951 113.626H577.829H561.887L553.827 127.591L545.766 141.556L553.827 155.522L561.887 169.487H577.829H593.951L602.011 155.522L610.072 141.556ZM633 174.5L629.059 167.696L625.118 160.893H617.237H609.355L605.594 167.696L601.653 174.5L605.594 181.304L609.355 188.107H617.237H625.118L629.059 181.304L633 174.5ZM553.827 174.5L546.841 162.325L539.676 150.15H525.704H511.553L504.567 162.325L497.581 174.5L504.567 186.675L511.553 198.85H525.704H539.676L546.841 186.675L553.827 174.5ZM382.762 234.121L386.344 247.728L390.106 261.335L380.075 271.182L370.223 281.209L356.609 277.449L342.996 273.868L339.413 260.261L335.652 246.654L345.683 236.806L355.535 226.78L369.148 230.54L382.762 234.121Z" fill="white"/>
<path fill-rule="evenodd" clip-rule="evenodd" d="M431.657 119.519L436.241 122.162L440.825 124.805V130.092V135.379L436.241 137.963L431.657 140.607L427.073 137.963L422.548 135.379V130.092V124.805L427.073 122.162L431.657 119.519ZM409.854 141.899L414.321 140.724L418.787 139.491L422.019 142.78L425.31 146.011L424.076 150.475L422.901 154.939L418.434 156.114L413.968 157.348L410.736 154.058L407.445 150.828L408.679 146.363L409.854 141.899ZM462.04 194.061L466.507 192.886L470.973 191.652L474.205 194.942L477.496 198.172L476.262 202.637L475.087 207.101L470.621 208.276L466.213 209.509L462.922 206.22L459.69 202.989L460.865 198.525L462.04 194.061ZM475.087 141.899L476.262 146.363L477.496 150.828L474.205 154.058L470.973 157.348L466.507 156.114L462.04 154.939L460.865 150.475L459.69 146.011L462.922 142.78L466.213 139.491L470.621 140.724L475.087 141.899ZM453.284 119.519L457.868 122.162L462.452 124.805V130.092V135.379L457.868 137.963L453.284 140.607L448.7 137.963L444.175 135.379V130.092V124.805L448.7 122.162L453.284 119.519ZM442.471 112L444.704 113.292L446.937 114.585V117.169V119.754L444.704 121.046L442.471 122.28L440.237 121.046L438.004 119.754V117.169V114.585L440.237 113.292L442.471 112ZM442.471 137.963L446.467 140.254L450.463 142.604V147.186V151.826L446.467 154.117L442.471 156.408L438.474 154.117L434.478 151.826V147.186V142.604L438.474 140.254L442.471 137.963ZM431.657 229.481L436.241 226.838L440.825 224.195V218.908V213.68L436.241 211.037L431.657 208.393L427.073 211.037L422.548 213.68V218.908V224.195L427.073 226.838L431.657 229.481ZM453.284 229.481L457.868 226.838L462.452 224.195V218.908V213.68L457.868 211.037L453.284 208.393L448.7 211.037L444.175 213.68V218.908V224.195L448.7 226.838L453.284 229.481ZM442.471 237L444.704 235.708L446.937 234.415V231.831V229.246L444.704 228.013L442.471 226.72L440.237 228.013L438.004 229.246V231.831V234.415L440.237 235.708L442.471 237ZM442.471 211.037L446.467 208.746L450.463 206.396V201.814V197.174L446.467 194.883L442.471 192.592L438.474 194.883L434.478 197.174V201.814V206.396L438.474 208.746L442.471 211.037ZM387.464 185.308L390.108 180.727L392.753 176.145H398.042H403.331L405.976 180.727L408.561 185.308L405.976 189.89L403.331 194.472H398.042H392.753L390.108 189.89L387.464 185.308ZM387.464 163.692L390.108 159.11L392.753 154.528H398.042H403.331L405.976 159.11L408.561 163.692L405.976 168.273L403.331 172.855H398.042H392.753L390.108 168.273L387.464 163.692ZM380 174.5L381.234 172.268L382.527 170.036H385.113H387.699L388.992 172.268L390.226 174.5L388.992 176.732L387.699 178.964H385.113H382.527L381.234 176.732L380 174.5ZM405.917 174.5L408.268 170.506L410.559 166.511H415.143H419.786L422.078 170.506L424.37 174.5L422.078 178.494L419.786 182.489H415.143H410.559L408.268 178.494L405.917 174.5ZM497.478 185.308L494.833 180.727L492.189 176.145H486.899H481.669L479.024 180.727L476.38 185.308L479.024 189.89L481.669 194.472H486.899H492.189L494.833 189.89L497.478 185.308ZM497.478 163.692L494.833 159.11L492.189 154.528H486.899H481.669L479.024 159.11L476.38 163.692L479.024 168.273L481.669 172.855H486.899H492.189L494.833 168.273L497.478 163.692ZM505 174.5L503.707 172.268L502.414 170.036H499.828H497.243L496.008 172.268L494.716 174.5L496.008 176.732L497.243 178.964H499.828H502.414L503.707 176.732L505 174.5ZM479.024 174.5L476.732 170.506L474.382 166.511H469.798H465.155L462.863 170.506L460.571 174.5L462.863 178.494L465.155 182.489H469.798H474.382L476.732 178.494L479.024 174.5ZM422.901 194.061L424.076 198.525L425.31 202.989L422.019 206.22L418.787 209.509L414.321 208.276L409.854 207.101L408.679 202.637L407.445 198.172L410.736 194.942L413.968 191.652L418.434 192.886L422.901 194.061Z" fill="#FFE454"/>
</g>
</svg>
