<svg width="123" height="60" viewBox="0 0 123 60" fill="none" xmlns="http://www.w3.org/2000/svg">
<path fill-rule="evenodd" clip-rule="evenodd" d="M50.8307 -55.6015L55.3413 -53.0005L59.8519 -50.3994V-45.1974V-39.9953L55.3413 -37.4521L50.8307 -34.851L46.3202 -37.4521L41.8674 -39.9953V-45.1974V-50.3994L46.3202 -53.0005L50.8307 -55.6015ZM29.3766 -33.5794L33.7715 -34.7354L38.1664 -35.9492L41.347 -32.7124L44.5853 -29.5334L43.3709 -25.1405L42.2144 -20.7477L37.8195 -19.5916L33.4245 -18.3778L30.244 -21.6147L27.0056 -24.7937L28.22 -29.1866L29.3766 -33.5794ZM80.7278 17.7477L85.1227 16.5916L89.5176 15.3778L92.6982 18.6147L95.9365 21.7937L94.7221 26.1866L93.5656 30.5794L89.1707 31.7354L84.8336 32.9492L81.5952 29.7124L78.4147 26.5334L79.5712 22.1405L80.7278 17.7477ZM93.5656 -33.5794L94.7221 -29.1866L95.9365 -24.7937L92.6982 -21.6147L89.5176 -18.3778L85.1227 -19.5916L80.7278 -20.7477L79.5712 -25.1405L78.4147 -29.5334L81.5952 -32.7124L84.8336 -35.9492L89.1707 -34.7354L93.5656 -33.5794ZM72.1114 -55.6015L76.622 -53.0005L81.1326 -50.3994V-45.1974V-39.9953L76.622 -37.4521L72.1114 -34.851L67.6008 -37.4521L63.1481 -39.9953V-45.1974V-50.3994L67.6008 -53.0005L72.1114 -55.6015ZM61.4711 -63L63.6685 -61.7284L65.866 -60.4568V-57.9135V-55.3703L63.6685 -54.0987L61.4711 -52.8849L59.2736 -54.0987L57.0762 -55.3703V-57.9135V-60.4568L59.2736 -61.7284L61.4711 -63ZM61.4711 -37.4521L65.4034 -35.1978L69.3357 -32.8858V-28.3773V-23.8111L65.4034 -21.5569L61.4711 -19.3026L57.5388 -21.5569L53.6065 -23.8111V-28.3773V-32.8858L57.5388 -35.1978L61.4711 -37.4521ZM50.8307 52.6015L55.3413 50.0005L59.8519 47.3994V42.1974V37.0531L55.3413 34.4521L50.8307 31.851L46.3202 34.4521L41.8674 37.0531V42.1974V47.3994L46.3202 50.0005L50.8307 52.6015ZM72.1114 52.6015L76.622 50.0005L81.1326 47.3994V42.1974V37.0531L76.622 34.4521L72.1114 31.851L67.6008 34.4521L63.1481 37.0531V42.1974V47.3994L67.6008 50.0005L72.1114 52.6015ZM61.4711 60L63.6685 58.7284L65.866 57.4568V54.9135V52.3703L63.6685 51.1565L61.4711 49.8849L59.2736 51.1565L57.0762 52.3703V54.9135V57.4568L59.2736 58.7284L61.4711 60ZM61.4711 34.4521L65.4034 32.1978L69.3357 29.8858V25.3773V20.8111L65.4034 18.5569L61.4711 16.3026L57.5388 18.5569L53.6065 20.8111V25.3773V29.8858L57.5388 32.1978L61.4711 34.4521ZM7.34415 9.13534L9.9464 4.62688L12.5487 0.11842H17.7532H22.9577L25.5599 4.62688L28.1044 9.13534L25.5599 13.6438L22.9577 18.1523H17.7532H12.5487L9.9464 13.6438L7.34415 9.13534ZM7.34415 -12.1353L9.9464 -16.6438L12.5487 -21.1523H17.7532H22.9577L25.5599 -16.6438L28.1044 -12.1353L25.5599 -7.62688L22.9577 -3.11842H17.7532H12.5487L9.9464 -7.62688L7.34415 -12.1353ZM0 -1.5L1.21439 -3.69643L2.4866 -5.89286H5.03103H7.57546L8.84767 -3.69643L10.0621 -1.5L8.84767 0.696426L7.57546 2.89285H5.03103H2.4866L1.21439 0.696426L0 -1.5ZM25.5021 -1.5L27.8152 -5.43045L30.0705 -9.3609H34.5811H39.1495L41.4048 -5.43045L43.6601 -1.5L41.4048 2.43045L39.1495 6.3609H34.5811H30.0705L27.8152 2.43045L25.5021 -1.5ZM115.598 9.13534L112.996 4.62688L110.394 0.11842H105.189H100.042L97.4401 4.62688L94.8378 9.13534L97.4401 13.6438L100.042 18.1523H105.189H110.394L112.996 13.6438L115.598 9.13534ZM115.598 -12.1353L112.996 -16.6438L110.394 -21.1523H105.189H100.042L97.4401 -16.6438L94.8378 -12.1353L97.4401 -7.62688L100.042 -3.11842H105.189H110.394L112.996 -7.62688L115.598 -12.1353ZM123 -1.5L121.728 -3.69643L120.456 -5.89286H117.911H115.367L114.152 -3.69643L112.88 -1.5L114.152 0.696426L115.367 2.89285H117.911H120.456L121.728 0.696426L123 -1.5ZM97.4401 -1.5L95.1848 -5.43045L92.8717 -9.3609H88.3611H83.7927L81.5374 -5.43045L79.2821 -1.5L81.5374 2.43045L83.7927 6.3609H88.3611H92.8717L95.1848 2.43045L97.4401 -1.5ZM42.2144 17.7477L43.3709 22.1405L44.5853 26.5334L41.347 29.7124L38.1664 32.9492L33.7715 31.7354L29.3766 30.5794L28.22 26.1866L27.0056 21.7937L30.244 18.6147L33.4245 15.3778L37.8195 16.5916L42.2144 17.7477Z" fill="#FFE454"/>
</svg>
