<svg width="960" height="548" viewBox="0 0 960 548" fill="none" xmlns="http://www.w3.org/2000/svg">
<path opacity="0.02" fill-rule="evenodd" clip-rule="evenodd" d="M352.722 -280.744L390.677 -258.858L428.632 -236.971V-193.197V-149.424L390.677 -128.023L352.722 -106.137L314.767 -128.023L277.299 -149.424V-193.197V-236.971L314.767 -258.858L352.722 -280.744ZM172.193 -95.4366L209.175 -105.164L246.157 -115.378L272.92 -88.141L300.169 -61.3905L289.951 -24.4262L280.219 12.5381L243.237 22.2655L206.255 32.4793L179.492 5.24246L152.243 -21.508L162.461 -58.4723L172.193 -95.4366ZM604.295 336.462L641.276 326.734L678.258 316.521L705.021 343.758L732.271 370.508L722.052 407.472L712.32 444.437L675.339 454.164L638.843 464.378L611.594 437.141L584.831 410.391L594.563 373.426L604.295 336.462ZM712.32 -95.4366L722.052 -58.4723L732.271 -21.508L705.021 5.24246L678.258 32.4793L641.276 22.2655L604.295 12.5381L594.563 -24.4262L584.831 -61.3905L611.594 -88.141L638.843 -115.378L675.339 -105.164L712.32 -95.4366ZM531.791 -280.744L569.746 -258.858L607.701 -236.971V-193.197V-149.424L569.746 -128.023L531.791 -106.137L493.836 -128.023L456.368 -149.424V-193.197V-236.971L493.836 -258.858L531.791 -280.744ZM442.257 -343L460.748 -332.3L479.238 -321.6V-300.199V-278.799L460.748 -268.099L442.257 -257.885L423.766 -268.099L405.275 -278.799V-300.199V-321.6L423.766 -332.3L442.257 -343ZM442.257 -128.023L475.346 -109.055L508.434 -89.6001V-51.6631V-13.2397L475.346 5.72885L442.257 24.6974L409.168 5.72885L376.079 -13.2397V-51.6631V-89.6001L409.168 -109.055L442.257 -128.023ZM352.722 629.744L390.677 607.858L428.632 585.971V542.197V498.91L390.677 477.023L352.722 455.137L314.767 477.023L277.299 498.91V542.197V585.971L314.767 607.858L352.722 629.744ZM531.791 629.744L569.746 607.858L607.701 585.971V542.197V498.91L569.746 477.023L531.791 455.137L493.836 477.023L456.368 498.91V542.197V585.971L493.836 607.858L531.791 629.744ZM442.257 692L460.748 681.3L479.238 670.6V649.199V627.799L460.748 617.585L442.257 606.885L423.766 617.585L405.275 627.799V649.199V670.6L423.766 681.3L442.257 692ZM442.257 477.023L475.346 458.055L508.434 438.6V400.663V362.24L475.346 343.271L442.257 324.303L409.168 343.271L376.079 362.24V400.663V438.6L409.168 458.055L442.257 477.023ZM-13.2017 263.992L8.69534 226.055L30.5924 188.118H74.3865H118.181L140.078 226.055L161.488 263.992L140.078 301.93L118.181 339.867H74.3865H30.5924L8.69534 301.93L-13.2017 263.992ZM-13.2017 85.0075L8.69534 47.0705L30.5924 9.13345H74.3865H118.181L140.078 47.0705L161.488 85.0075L140.078 122.945L118.181 160.882H74.3865H30.5924L8.69534 122.945L-13.2017 85.0075ZM-75 174.5L-64.7814 156.018L-54.0762 137.536H-32.6657H-11.2553L-0.550072 156.018L9.66855 174.5L-0.550072 192.982L-11.2553 211.464H-32.6657H-54.0762L-64.7814 192.982L-75 174.5ZM139.591 174.5L159.055 141.427L178.032 108.353H215.987H254.429L273.406 141.427L292.384 174.5L273.406 207.573L254.429 240.647H215.987H178.032L159.055 207.573L139.591 174.5ZM897.715 263.992L875.818 226.055L853.921 188.118H810.127H766.819L744.922 226.055L723.025 263.992L744.922 301.93L766.819 339.867H810.127H853.921L875.818 301.93L897.715 263.992ZM897.715 85.0075L875.818 47.0705L853.921 9.13345H810.127H766.819L744.922 47.0705L723.025 85.0075L744.922 122.945L766.819 160.882H810.127H853.921L875.818 122.945L897.715 85.0075ZM960 174.5L949.295 156.018L938.59 137.536H917.179H895.769L885.55 156.018L874.845 174.5L885.55 192.982L895.769 211.464H917.179H938.59L949.295 192.982L960 174.5ZM744.922 174.5L725.945 141.427L706.481 108.353H668.526H630.085L611.107 141.427L592.13 174.5L611.107 207.573L630.085 240.647H668.526H706.481L725.945 207.573L744.922 174.5ZM280.219 336.462L289.951 373.426L300.169 410.391L272.92 437.141L246.157 464.378L209.175 454.164L172.193 444.437L162.461 407.472L152.243 370.508L179.492 343.758L206.255 316.521L243.237 326.734L280.219 336.462Z" fill="white"/>
</svg>
