<svg width="381" height="365" viewBox="0 0 381 365" fill="none" xmlns="http://www.w3.org/2000/svg">
<path opacity="0.05" fill-rule="evenodd" clip-rule="evenodd" d="M157.451 6.9173L171.423 14.9742L185.395 23.031V39.1447V55.2585L171.423 63.1363L157.451 71.1931L143.48 63.1363L129.687 55.2585V39.1447V23.031L143.48 14.9742L157.451 6.9173ZM90.9958 75.1321L104.609 71.5512L118.223 67.7914L128.075 77.8177L138.106 87.6649L134.344 101.272L130.762 114.879L117.148 118.46L103.535 122.22L93.6827 112.194L83.6516 102.346L87.4133 88.7392L90.9958 75.1321ZM250.059 234.121L263.673 230.54L277.286 226.78L287.138 236.806L297.169 246.654L293.408 260.261L289.825 273.868L276.212 277.449L262.777 281.209L252.746 271.182L242.894 261.335L246.477 247.728L250.059 234.121ZM289.825 75.1321L293.408 88.7392L297.169 102.346L287.138 112.194L277.286 122.22L263.673 118.46L250.059 114.879L246.477 101.272L242.894 87.6649L252.746 77.8177L262.777 67.7914L276.212 71.5512L289.825 75.1321ZM223.37 6.9173L237.341 14.9742L251.313 23.031V39.1447V55.2585L237.341 63.1363L223.37 71.1931L209.398 63.1363L195.605 55.2585V39.1447V23.031L209.398 14.9742L223.37 6.9173ZM190.41 -16L197.217 -12.0611L204.024 -8.12218V-0.24436V7.63346L197.217 11.5724L190.41 15.3322L183.604 11.5724L176.797 7.63346V-0.24436V-8.12218L183.604 -12.0611L190.41 -16ZM190.41 63.1363L202.591 70.1189L214.772 77.2805V91.2458V105.39L202.591 112.373L190.41 119.355L178.23 112.373L166.049 105.39V91.2458V77.2805L178.23 70.1189L190.41 63.1363ZM157.451 342.083L171.423 334.026L185.395 325.969V309.855V293.921L171.423 285.864L157.451 277.807L143.48 285.864L129.687 293.921V309.855V325.969L143.48 334.026L157.451 342.083ZM223.37 342.083L237.341 334.026L251.313 325.969V309.855V293.921L237.341 285.864L223.37 277.807L209.398 285.864L195.605 293.921V309.855V325.969L209.398 334.026L223.37 342.083ZM190.41 365L197.217 361.061L204.024 357.122V349.244V341.367L197.217 337.607L190.41 333.668L183.604 337.607L176.797 341.367V349.244V357.122L183.604 361.061L190.41 365ZM190.41 285.864L202.591 278.881L214.772 271.719V257.754V243.61L202.591 236.627L190.41 229.645L178.23 236.627L166.049 243.61V257.754V271.719L178.23 278.881L190.41 285.864ZM22.7489 207.444L30.8096 193.478L38.8702 179.513H54.9915H71.1128L79.1735 193.478L87.055 207.444L79.1735 221.409L71.1128 235.374H54.9915H38.8702L30.8096 221.409L22.7489 207.444ZM22.7489 141.556L30.8096 127.591L38.8702 113.626H54.9915H71.1128L79.1735 127.591L87.055 141.556L79.1735 155.522L71.1128 169.487H54.9915H38.8702L30.8096 155.522L22.7489 141.556ZM0 174.5L3.76164 167.696L7.7024 160.893H15.5839H23.4654L27.4062 167.696L31.1678 174.5L27.4062 181.304L23.4654 188.107H15.5839H7.7024L3.76164 181.304L0 174.5ZM78.9944 174.5L86.1594 162.325L93.1453 150.15H107.117H121.268L128.254 162.325L135.24 174.5L128.254 186.675L121.268 198.85H107.117H93.1453L86.1594 186.675L78.9944 174.5ZM358.072 207.444L350.011 193.478L341.951 179.513H325.829H309.887L301.827 193.478L293.766 207.444L301.827 221.409L309.887 235.374H325.829H341.951L350.011 221.409L358.072 207.444ZM358.072 141.556L350.011 127.591L341.951 113.626H325.829H309.887L301.827 127.591L293.766 141.556L301.827 155.522L309.887 169.487H325.829H341.951L350.011 155.522L358.072 141.556ZM381 174.5L377.059 167.696L373.118 160.893H365.237H357.355L353.594 167.696L349.653 174.5L353.594 181.304L357.355 188.107H365.237H373.118L377.059 181.304L381 174.5ZM301.827 174.5L294.841 162.325L287.676 150.15H273.704H259.553L252.567 162.325L245.581 174.5L252.567 186.675L259.553 198.85H273.704H287.676L294.841 186.675L301.827 174.5ZM130.762 234.121L134.344 247.728L138.106 261.335L128.075 271.182L118.223 281.209L104.609 277.449L90.9958 273.868L87.4133 260.261L83.6516 246.654L93.6827 236.806L103.535 226.78L117.148 230.54L130.762 234.121Z" fill="white"/>
</svg>
