<svg width="125" height="125" viewBox="0 0 125 125" fill="none" xmlns="http://www.w3.org/2000/svg">
<path fill-rule="evenodd" clip-rule="evenodd" d="M51.6573 7.5188L56.2412 10.1621L60.8251 12.8055V18.0921V23.3788L56.2412 25.9633L51.6573 28.6067L47.0733 25.9633L42.5482 23.3788V18.0921V12.8055L47.0733 10.1621L51.6573 7.5188ZM29.8543 29.899L34.3206 28.7242L38.787 27.4906L42.0193 30.7801L45.3103 34.0108L44.0762 38.4751L42.9008 42.9394L38.4344 44.1142L33.968 45.3477L30.7358 42.0583L27.4448 38.8275L28.6789 34.3633L29.8543 29.899ZM82.0404 82.0606L86.5068 80.8858L90.9732 79.6523L94.2055 82.9417L97.4965 86.1725L96.2623 90.6367L95.087 95.101L90.6206 96.2758L86.213 97.5094L82.922 94.2199L79.6897 90.9892L80.8651 86.5249L82.0404 82.0606ZM95.087 29.899L96.2623 34.3633L97.4965 38.8275L94.2055 42.0583L90.9732 45.3477L86.5068 44.1142L82.0404 42.9394L80.8651 38.4751L79.6897 34.0108L82.922 30.7801L86.213 27.4906L90.6206 28.7242L95.087 29.899ZM73.284 7.5188L77.8679 10.1621L82.4518 12.8055V18.0921V23.3788L77.8679 25.9633L73.284 28.6067L68.7 25.9633L64.1749 23.3788V18.0921V12.8055L68.7 10.1621L73.284 7.5188ZM62.4706 0L64.7038 1.29229L66.937 2.58459V5.16917V7.75376L64.7038 9.04605L62.4706 10.2796L60.2374 9.04605L58.0042 7.75376V5.16917V2.58459L60.2374 1.29229L62.4706 0ZM62.4706 25.9633L66.4669 28.2542L70.4631 30.6039V35.1856V39.8261L66.4669 42.117L62.4706 44.4079L58.4744 42.117L54.4781 39.8261V35.1856V30.6039L58.4744 28.2542L62.4706 25.9633ZM51.6573 117.481L56.2412 114.838L60.8251 112.195V106.908V101.68L56.2412 99.0367L51.6573 96.3933L47.0733 99.0367L42.5482 101.68V106.908V112.195L47.0733 114.838L51.6573 117.481ZM73.284 117.481L77.8679 114.838L82.4518 112.195V106.908V101.68L77.8679 99.0367L73.284 96.3933L68.7 99.0367L64.1749 101.68V106.908V112.195L68.7 114.838L73.284 117.481ZM62.4706 125L64.7038 123.708L66.937 122.415V119.831V117.246L64.7038 116.013L62.4706 114.72L60.2374 116.013L58.0042 117.246V119.831V122.415L60.2374 123.708L62.4706 125ZM62.4706 99.0367L66.4669 96.7458L70.4631 94.3961V89.8144V85.1739L66.4669 82.883L62.4706 80.5921L58.4744 82.883L54.4781 85.1739V89.8144V94.3961L58.4744 96.7458L62.4706 99.0367ZM7.46356 73.3083L10.1081 68.7265L12.7527 64.1447H18.0418H23.331L25.9756 68.7265L28.5614 73.3083L25.9756 77.89L23.331 82.4718H18.0418H12.7527L10.1081 77.89L7.46356 73.3083ZM7.46356 51.6917L10.1081 47.11L12.7527 42.5282H18.0418H23.331L25.9756 47.11L28.5614 51.6917L25.9756 56.2735L23.331 60.8553H18.0418H12.7527L10.1081 56.2735L7.46356 51.6917ZM0 62.5L1.23413 60.2679L2.52703 58.0357H5.11283H7.69864L8.99154 60.2679L10.2257 62.5L8.99154 64.7321L7.69864 66.9643H5.11283H2.52703L1.23413 64.7321L0 62.5ZM25.9168 62.5L28.2675 58.5056L30.5595 54.5113H35.1434H39.7861L42.078 58.5056L44.37 62.5L42.078 66.4944L39.7861 70.4887H35.1434H30.5595L28.2675 66.4944L25.9168 62.5ZM117.478 73.3083L114.833 68.7265L112.189 64.1447H106.899H101.669L99.0244 68.7265L96.3799 73.3083L99.0244 77.89L101.669 82.4718H106.899H112.189L114.833 77.89L117.478 73.3083ZM117.478 51.6917L114.833 47.11L112.189 42.5282H106.899H101.669L99.0244 47.11L96.3799 51.6917L99.0244 56.2735L101.669 60.8553H106.899H112.189L114.833 56.2735L117.478 51.6917ZM125 62.5L123.707 60.2679L122.414 58.0357H119.828H117.243L116.008 60.2679L114.716 62.5L116.008 64.7321L117.243 66.9643H119.828H122.414L123.707 64.7321L125 62.5ZM99.0244 62.5L96.7325 58.5056L94.3818 54.5113H89.7978H85.1551L82.8632 58.5056L80.5712 62.5L82.8632 66.4944L85.1551 70.4887H89.7978H94.3818L96.7325 66.4944L99.0244 62.5ZM42.9008 82.0606L44.0762 86.5249L45.3103 90.9892L42.0193 94.2199L38.787 97.5094L34.3206 96.2758L29.8543 95.101L28.6789 90.6367L27.4448 86.1725L30.7358 82.9417L33.968 79.6523L38.4344 80.8858L42.9008 82.0606Z" fill="#FFE454"/>
</svg>
