<?xml version="1.0" standalone="no"?>
<!DOCTYPE svg PUBLIC "-//W3C//DTD SVG 20010904//EN"
 "http://www.w3.org/TR/2001/REC-SVG-20010904/DTD/svg10.dtd">
<svg version="1.0" xmlns="http://www.w3.org/2000/svg"
 width="700.000000pt" height="700.000000pt" viewBox="0 0 700.000000 700.000000"
 preserveAspectRatio="xMidYMid meet">
<metadata>
Created by potrace 1.14, written by Peter Selinger 2001-2017
</metadata>
<g transform="translate(0.000000,700.000000) scale(0.100000,-0.100000)"
fill="#000000" stroke="none">
<path d="M3372 6927 l-123 -72 3 -144 3 -145 115 -67 c63 -37 122 -68 130 -68
8 0 67 30 130 67 l115 67 3 145 2 145 -125 73 c-69 39 -126 72 -127 72 -2 -1
-58 -33 -126 -73z"/>
<path d="M2835 6545 c-31 -19 -59 -35 -60 -35 -2 0 -38 -20 -79 -45 -42 -25
-81 -45 -86 -45 -6 0 -10 -4 -10 -10 0 -5 -4 -10 -9 -10 -4 0 -46 -23 -92 -50
-46 -28 -91 -53 -100 -56 -14 -5 -16 -41 -16 -299 -1 -261 1 -295 15 -308 13
-11 268 -159 473 -275 28 -16 -2 -30 317 155 53 31 117 67 142 81 25 14 52 30
61 36 13 10 15 50 15 306 l-1 295 -115 68 c-63 37 -122 70 -130 74 -8 4 -46
25 -85 48 -38 23 -95 55 -126 73 l-56 32 -58 -35z"/>
<path d="M4086 6573 c-4 -5 -116 -71 -249 -148 l-242 -140 0 -296 -1 -296 119
-69 c66 -38 138 -80 161 -93 22 -13 61 -35 86 -49 25 -14 61 -35 80 -47 59
-36 68 -37 118 -7 26 15 59 34 74 42 14 8 107 62 206 119 l179 104 0 290 c0
258 -2 292 -17 307 -9 9 -72 48 -139 86 -67 38 -130 74 -139 79 -72 43 -219
125 -223 125 -3 0 -9 -3 -13 -7z"/>
<path d="M3283 5421 c-111 -65 -209 -121 -217 -124 -12 -5 -15 -45 -14 -264 0
-291 -9 -261 88 -312 25 -13 52 -30 61 -37 8 -8 18 -14 22 -14 3 0 67 -35 142
-79 l136 -79 202 117 c111 65 212 123 224 131 21 13 21 18 21 272 l0 258 -27
13 c-14 7 -93 53 -176 102 -206 121 -232 135 -247 135 -7 -1 -104 -54 -215
-119z"/>
<path d="M2110 5444 c-25 -8 -54 -16 -65 -18 -21 -5 -82 -21 -235 -63 -52 -14
-105 -28 -117 -30 -11 -3 -23 -15 -26 -26 -2 -12 -16 -65 -30 -117 -14 -52
-42 -155 -62 -229 l-36 -135 183 -182 183 -183 55 15 c30 8 62 17 70 19 54 14
320 86 344 93 29 8 31 13 83 208 30 109 56 209 59 221 2 12 9 34 14 49 10 25
1 35 -172 210 -100 101 -187 184 -193 183 -5 0 -30 -7 -55 -15z"/>
<path d="M4644 5278 c-172 -174 -181 -184 -174 -213 4 -16 17 -66 29 -110 44
-158 63 -230 67 -250 2 -11 10 -40 18 -65 l13 -45 104 -27 c57 -16 170 -46
250 -67 l147 -39 182 183 182 182 -27 99 c-15 54 -35 128 -45 164 -10 36 -28
104 -40 151 l-22 86 -232 62 c-127 34 -240 64 -251 66 -16 4 -61 -36 -201
-177z"/>
<path d="M711 4606 c-17 -20 -111 -187 -111 -197 0 -5 -4 -9 -10 -9 -5 0 -10
-4 -10 -9 0 -4 -36 -70 -79 -146 -44 -76 -79 -141 -77 -144 54 -97 255 -446
272 -472 l22 -36 294 0 294 0 110 190 c60 104 126 220 147 258 l38 68 -54 93
c-30 51 -65 112 -78 134 -13 23 -55 96 -93 162 l-70 120 -293 0 c-205 0 -295
-4 -302 -12z"/>
<path d="M5602 4461 c-49 -86 -99 -172 -110 -191 -10 -19 -36 -63 -56 -98 -21
-34 -36 -66 -34 -71 2 -5 68 -121 147 -258 l143 -250 296 1 296 1 61 105 c34
58 101 172 148 254 l86 148 -19 37 c-11 20 -77 135 -147 256 l-128 220 -296 1
-297 1 -90 -156z"/>
<path d="M1664 3865 c-27 -47 -53 -94 -59 -103 -97 -167 -145 -253 -145 -262
0 -6 57 -109 126 -230 l127 -218 257 0 257 0 31 51 c17 29 76 131 131 227 99
174 99 174 82 200 -10 14 -68 113 -130 222 l-111 196 -258 1 -259 2 -49 -86z"/>
<path d="M4659 3753 c-62 -109 -120 -209 -129 -223 -16 -23 -16 -27 -1 -55 17
-31 132 -233 165 -288 10 -18 26 -45 35 -62 43 -80 17 -74 303 -73 l256 1 126
218 c69 120 126 223 126 229 0 10 -89 171 -150 270 -15 25 -39 66 -53 91 -52
96 -17 86 -308 88 l-257 1 -113 -197z"/>
<path d="M72 3625 l-73 -125 73 -125 73 -125 142 0 c137 0 143 1 156 23 69
112 127 217 127 228 -1 8 -31 66 -69 129 l-67 115 -145 3 -144 3 -73 -126z"/>
<path d="M6556 3728 c-54 -87 -126 -218 -126 -230 1 -7 31 -65 69 -128 l67
-115 145 -3 145 -3 72 126 73 125 -73 125 -73 125 -142 0 c-137 0 -143 -1
-157 -22z"/>
<path d="M696 3371 c-12 -20 -38 -63 -57 -96 -19 -33 -38 -67 -44 -77 -5 -9
-26 -45 -46 -80 -20 -34 -57 -99 -82 -143 l-46 -79 37 -66 c20 -36 86 -152
147 -257 l110 -190 292 0 293 0 25 33 c14 18 25 35 25 37 0 5 78 142 179 315
68 117 71 124 58 150 -7 15 -55 99 -107 187 -51 88 -106 185 -123 215 -17 30
-35 62 -41 71 -10 14 -48 16 -304 16 l-294 0 -22 -36z"/>
<path d="M5628 3296 c-34 -61 -68 -120 -74 -131 -6 -11 -43 -75 -83 -143 -61
-107 -69 -127 -60 -145 6 -12 72 -128 146 -258 l136 -236 293 0 c202 0 297 3
303 11 8 11 257 440 279 482 11 22 18 8 -199 384 l-84 145 -297 1 -296 0 -64
-110z"/>
<path d="M1721 2355 l-182 -182 31 -114 c16 -63 46 -175 66 -249 20 -74 37
-135 37 -136 2 -1 206 -57 292 -79 33 -9 94 -25 134 -36 l75 -19 182 182 182
183 -66 247 c-37 136 -69 249 -72 251 -5 5 -95 29 -371 102 l-126 33 -182
-183z"/>
<path d="M4846 2472 l-249 -67 -29 -105 c-15 -58 -46 -171 -67 -251 l-39 -146
183 -182 183 -182 208 56 c115 30 228 60 251 66 l41 11 21 82 c11 44 41 158
66 251 l45 170 -183 182 -182 181 -249 -66z"/>
<path d="M3460 2465 c-19 -12 -119 -70 -221 -129 l-186 -107 -1 -257 -2 -257
220 -128 c120 -70 224 -127 230 -127 13 0 433 241 442 254 3 5 6 124 6 263
l-1 253 -206 119 c-113 65 -215 123 -226 128 -16 8 -28 6 -55 -12z"/>
<path d="M2647 1460 c-131 -76 -244 -143 -251 -149 -11 -9 -13 -74 -13 -302
l0 -291 36 -22 c20 -13 57 -35 83 -49 26 -14 116 -66 200 -115 84 -49 163 -94
175 -100 22 -12 20 -13 423 223 l105 62 1 294 c0 255 -2 295 -15 305 -9 6 -41
25 -71 41 -30 17 -137 78 -238 137 -101 58 -186 106 -190 105 -4 0 -114 -63
-245 -139z"/>
<path d="M3845 1453 l-251 -146 1 -293 0 -294 35 -23 c19 -13 60 -37 90 -54
30 -17 121 -69 202 -116 81 -47 156 -90 166 -96 16 -8 63 15 263 130 134 77
249 147 255 155 8 10 11 105 11 303 0 253 -2 289 -16 298 -9 5 -36 21 -61 35
-25 14 -131 75 -237 136 -105 62 -195 112 -200 111 -4 0 -121 -66 -258 -146z"/>
<path d="M3370 502 l-115 -67 -3 -145 -2 -145 125 -73 125 -72 125 72 125 73
-2 145 -3 145 -115 67 c-63 37 -122 67 -130 67 -8 0 -67 -30 -130 -67z"/>
</g>
</svg>
