<svg width="50" height="50" viewBox="0 0 50 50" fill="none" xmlns="http://www.w3.org/2000/svg">
<rect width="50" height="50" rx="25" fill="#FFE454"/>
<path fill-rule="evenodd" clip-rule="evenodd" d="M15.9328 17.2655H34.0658C34.3635 17.2655 34.6421 17.3387 34.8942 17.4593L26.3664 25.9441C25.6124 26.6982 24.3862 26.6982 23.6322 25.9441L15.1044 17.4593C15.3565 17.3387 15.6352 17.2655 15.9328 17.2655ZM29.1339 25.0001L35.8061 18.3708C35.9267 18.6229 35.9999 18.9016 35.9999 19.1992V30.8009C35.9999 31.0985 35.9267 31.3772 35.8061 31.6293L29.1339 25.0001ZM14.1935 18.3708C14.0729 18.6229 13.9998 18.9016 13.9998 19.1992V30.8009C13.9998 31.0986 14.0729 31.3773 14.1935 31.6293L20.8658 25.0001L14.1935 18.3708ZM27.2779 26.8557L28.222 25.9115L34.8942 32.5407C34.6421 32.6614 34.3635 32.7345 34.0658 32.7345H15.9328C15.6352 32.7345 15.3565 32.6614 15.1044 32.5407L21.7766 25.9115L22.7208 26.8557C23.9771 28.112 26.0215 28.112 27.2779 26.8557Z" fill="white"/>
</svg>
