<svg width="50" height="50" viewBox="0 0 50 50" fill="none" xmlns="http://www.w3.org/2000/svg">
<rect width="50" height="50" rx="25" fill="#FFE454"/>
<path fill-rule="evenodd" clip-rule="evenodd" d="M27.0132 15.541C28.0076 14.5467 29.3296 13.9988 30.7355 13.9988C33.6387 13.9988 36 16.3601 36.0001 19.2633C36.0001 20.6692 35.4522 21.9912 34.4579 22.9856L29.8614 27.582C28.867 28.5764 27.545 29.1243 26.1391 29.1243C24.7339 29.1243 23.4119 28.5771 22.4182 27.5841L24.3612 25.6383C25.312 26.5877 26.9663 26.587 27.917 25.6376L32.5134 21.0411C32.9881 20.5658 33.2499 19.9347 33.2499 19.2633C33.2499 17.8768 32.122 16.7488 30.7355 16.7488C30.0641 16.7488 29.433 17.0107 28.9577 17.4854L26.4041 20.0389C25.6086 19.7209 24.7433 19.5493 23.8603 19.5493C23.5633 19.5493 23.2725 19.5902 22.9819 19.631C22.9592 19.6342 22.9365 19.6374 22.9137 19.6405L27.0132 15.541ZM21.0412 32.5128L23.5706 29.9834C24.3733 30.32 25.2418 30.4993 26.1384 30.4992C26.3987 30.4992 26.6521 30.4642 26.9056 30.4292C26.9473 30.4234 26.9889 30.4177 27.0306 30.4121L22.9855 34.4572C21.9912 35.4515 20.6692 35.9994 19.2632 35.9994C16.3601 35.9994 13.9988 33.6381 13.9988 30.7349C13.9988 29.329 14.5466 28.007 15.541 27.0127L20.1375 22.4162C22.1262 20.4275 25.5927 20.4282 27.5807 22.4142L25.6377 24.3599C24.6869 23.4106 23.0326 23.4113 22.0819 24.3606L17.4854 28.9571C17.0107 29.4324 16.7489 30.0636 16.7489 30.735C16.7489 32.1214 17.8768 33.2494 19.2633 33.2494C19.9347 33.2494 20.5658 32.9875 21.0412 32.5128Z" fill="white"/>
</svg>
