<svg width="16" height="16" viewBox="0 0 16 16" fill="none" xmlns="http://www.w3.org/2000/svg">
<path d="M4.45234 11.5353C6.98417 14.0733 10.0162 16 12.474 16C13.567 16 14.5365 15.6233 15.3084 14.7588C15.7591 14.2524 15.9938 13.7028 15.9938 13.1347C15.9938 12.6221 15.7901 12.1281 15.3084 11.7823L12.8383 10.0224C12.406 9.71362 12.0602 9.57776 11.7514 9.57776C11.35 9.57776 11.0043 9.81243 10.6152 10.1953L10.0162 10.8005C9.92358 10.8931 9.80008 10.9301 9.6951 10.9301C9.55925 10.9301 9.42338 10.8807 9.33693 10.8252C8.80586 10.5226 7.90428 9.73214 7.08298 8.91084C6.26167 8.08953 5.47124 7.18795 5.16867 6.65689C5.11308 6.56426 5.06369 6.42841 5.06369 6.29873C5.06369 6.18757 5.10074 6.07024 5.18719 5.97761L5.79236 5.37245C6.1814 4.98957 6.40988 4.64376 6.40988 4.2362C6.40988 3.93361 6.2802 3.58163 5.97144 3.15554L4.20533 0.679275C3.86569 0.203779 3.3655 0 2.84678 0C2.27249 0 1.72289 0.228478 1.23505 0.685447C0.376686 1.46353 0 2.43921 0 3.52606C0 5.98997 1.9205 9.00347 4.45234 11.5353Z" fill="#1F1F1F"/>
</svg>
